<?xml version="1.0" encoding="UTF-8"?>
<svg id="Layer_1" data-name="Layer 1" xmlns="http://www.w3.org/2000/svg" viewBox="0 0 1857.6 500">
  <g>
    <rect width="500" height="500" rx="37.15" ry="37.15"/>
    <path d="M79.36,401.41h121.35c1.75,0,3.4-.82,4.46-2.22L425.84,108.32c2.8-3.69.17-8.99-4.46-8.99h-121.35c-1.75,0-3.4.82-4.46,2.22L74.89,392.42c-2.8,3.69-.17,8.99,4.46,8.99Z" style="fill: #d00;"/>
    <circle cx="120.16" cy="172.25" r="72.92" style="fill: #fff;"/>
    <circle cx="380.57" cy="328.5" r="72.92" style="fill: #fc0;"/>
    <path d="M138.43,150.75l-13.06,1.5c-.43-1.3-1.03-2.22-1.79-2.77s-1.78-.82-3.06-.82c-1.53,0-2.64.3-3.35.89-.71.59-1.06,1.35-1.06,2.26,0,.78.32,1.46.96,2.05,1.14,1.05,3.8,2.34,8,3.86,5.99,2.19,10.16,4.33,12.51,6.43,2.32,2.12,3.49,4.89,3.49,8.31,0,2.01-.44,3.84-1.33,5.49-.89,1.65-2.32,3.33-4.31,5.04,1.21,1.32,2.1,2.65,2.68,4s.87,2.88.87,4.61c0,2.37-.61,4.59-1.83,6.66-1.22,2.07-3.14,3.73-5.76,4.97-2.62,1.24-6.14,1.86-10.56,1.86-2.83,0-5.34-.24-7.54-.72s-4.01-1.14-5.43-1.98c-1.42-.84-2.6-1.82-3.52-2.92s-1.61-2.16-2.07-3.18c-.46-1.01-.87-2.39-1.23-4.12l12.85-1.34c.82,1.67,1.75,2.9,2.8,3.68,1.05.78,2.33,1.17,3.86,1.17s2.75-.37,3.54-1.09,1.18-1.63,1.18-2.7c0-.91-.47-1.84-1.4-2.77-1.3-1.28-4.78-3.04-10.44-5.28-5.66-2.25-9.44-4.48-11.33-6.69-1.89-2.21-2.84-4.56-2.84-7.05,0-1.96.51-3.77,1.52-5.42,1.01-1.65,2.75-3.35,5.21-5.08-1.16-1.28-2.01-2.53-2.53-3.76-.52-1.23-.79-2.61-.79-4.14,0-1.96.46-3.76,1.38-5.39s2.12-2.93,3.61-3.92c1.48-.98,2.98-1.69,4.51-2.12,2.07-.59,4.74-.89,8-.89,4.35,0,7.6.39,9.76,1.18s3.91,2,5.28,3.64,2.44,3.82,3.21,6.53ZM112.28,164.26c-1.19,1.57-1.78,2.84-1.78,3.8,0,.59.19,1.11.58,1.54.64.73,2.21,1.67,4.72,2.8l13.16,5.92c1.03-1.55,1.54-2.79,1.54-3.73,0-.75-.31-1.43-.92-2.02-.89-.87-3.52-2.21-7.9-4.02-4.38-1.81-7.51-3.24-9.4-4.29Z"/>
    <path d="M391.99,330.17l-1.48,6.22h-10.36c1.34,4.26,4.26,6.39,8.75,6.39,4.92,0,9.52-1.59,13.81-4.79v12.75c-3.55,2.44-7.85,3.66-12.89,3.66-8.13,0-14.15-1.86-18.05-5.57-3.9-3.71-6.28-7.86-7.14-12.44h-6.2l1.65-6.22h3.76c-.05-.34-.07-.95-.07-1.81,0-.91.02-1.57.07-1.98h-4.55l1.62-6.22h3.73c2.96-11.71,11.1-17.57,24.4-17.57,4.35,0,8.76,1.16,13.23,3.49l-3.08,12.41c-3.1-2.85-6.33-4.27-9.71-4.27-4.42,0-7.41,1.98-8.96,5.95h12.31l-1.48,6.22h-12.03c-.05.46-.07,1.12-.07,1.98v1.81h12.72Z"/>
    <g id="TEXT">
      <path d="M65.83,374.82l38.67-38.67,10.88,10.88-22.96,22.96,8.84,8.84,19.61-19.61,10.22,10.22-19.61,19.61,20.68,20.68-15.71,15.71-50.62-50.62Z" style="fill: #fff;"/>
      <path d="M113.54,327.1l15.67-15.67,50.62,50.62-15.67,15.67-50.62-50.62Z" style="fill: #fff;"/>
      <path d="M140.54,300.1l14.6-14.6,47.06,8.94-28-28,14.74-14.74,50.62,50.62-14.74,14.74-46.75-8.84,27.79,27.79-14.71,14.71-50.62-50.62Z" style="fill: #fff;"/>
      <path d="M272.03,253.14l-17.76,17.76,5.89,10.82-15.97,15.97-31.59-69.64,17.06-17.06,69.64,31.6-16.38,16.38-10.89-5.82ZM257.84,245.44l-23.78-12.61,12.67,23.72,11.12-11.12Z" style="fill: #fff;"/>
      <path d="M253.48,187.17l20.57-20.57,38.73,22.87-22.92-38.67,20.56-20.56,50.62,50.62-12.81,12.81-38.6-38.6,28.73,48.47-11.6,11.59-48.45-28.75,38.6,38.6-12.81,12.81-50.62-50.62Z" style="fill: #fff;"/>
      <path d="M316.84,123.81l47.54-47.54,12.5,12.5-15.95,15.95,38.12,38.12-15.64,15.64-38.12-38.12-15.95,15.95-12.5-12.5Z" style="fill: #fff;"/>
    </g>
  </g>
  <g>
    <path d="M671.08,233.8h-8.1c-8.4,0-19.8-1.8-19.8-14.4s10.2-14.4,19.8-14.4h8.1v-3.9c0-16.5.9-28.5,13.8-41.1,13.8-13.2,26.7-14.4,44.4-14.4h19.5c9.9,0,21,.9,21,14.4,0,12.3-9.9,14.4-19.8,14.4h-22.5c-19.5,0-27.6,3.9-27.6,24.9v5.7h25.5c9.6,0,19.8,2.1,19.8,14.4s-11.4,14.4-19.8,14.4h-25.5v113.1c0,9.9-2.1,19.8-14.4,19.8s-14.4-9.9-14.4-19.8v-113.1Z"/>
    <path d="M930.28,337.9h21.6c9.6,0,19.8,2.1,19.8,14.4s-11.4,14.4-19.8,14.4h-73.2c-8.4,0-19.8-1.8-19.8-14.4s10.2-14.4,19.8-14.4h22.8v-104.1h-22.8c-8.4,0-19.8-1.8-19.8-14.4s10.2-14.4,19.8-14.4h30.3c16.5,0,21.3,3,21.3,20.1v112.8ZM886.78,146.8c0-10.2,5.7-13.5,13.5-13.5h16.5c7.8,0,13.5,3.3,13.5,13.5v13.8c0,10.2-5.7,13.5-13.5,13.5h-16.5c-7.8,0-13.5-3.3-13.5-13.5v-13.8Z"/>
    <path d="M1089.57,263.2v83.7c0,9.9-2.1,19.8-14.4,19.8s-14.4-9.9-14.4-19.8v-120.6c0-10.5,1.2-21.3,14.4-21.3s14.4,10.8,14.4,21v3.9l23.4-15.3c7.5-4.8,15.6-9.6,24.9-9.6h21.3c11.1,0,18,3,26.7,10.5,12.9,11.1,12.3,23.4,12.9,39l3,90.6c.3,10.2-1.2,21.6-14.1,21.6-11.7,0-14.1-9.9-14.4-19.5l-3-88.8c-.6-17.7-2.1-24.6-19.5-24.6h-9.6c-3,0-6,.9-9,2.7l-42.6,26.7Z"/>
    <path d="M1325.07,233.8c-8.4,0-19.8-1.8-19.8-14.4s10.2-14.4,19.8-14.4h39.6c15,0,25.8,1.5,37.2,12.9,11.1,11.1,12.6,19.8,12.9,34.2l3,97.8c.3,8.4-3.9,16.8-13.5,16.8-7.5,0-15-6.3-14.7-14.4l-19.8,10.2c-8.1,4.2-8.4,4.2-17.7,4.2h-27.6c-12.9,0-22.2-1.5-32.7-10.2-12-9.9-15-20.4-15-35.4v-12.6c0-13.8,3.3-22.5,14.1-32.1,9.9-8.7,21-10.8,33.6-10.8h61.8v-6.6c0-21.6-4.8-25.2-25.5-25.2h-35.7ZM1324.77,294.4c-7.8,0-19.2,2.1-19.2,12.6v19.2c0,9.6,11.7,11.7,18.6,11.7h31.8l31.8-16.5v-6.3c0-15.9-4.5-20.7-20.4-20.7h-42.6Z"/>
    <path d="M1577.66,253.3v93.6c0,9.9-2.1,19.8-14.4,19.8s-14.4-9.9-14.4-19.8v-96.3c0-4.8.6-13.8-6.9-13.8-3.3,0-5.4,2.7-7.8,4.8l-12.6,11.7v93.6c0,9.9-2.1,19.8-14.4,19.8s-14.4-9.9-14.4-19.8v-121.5c0-10.2,2.7-20.4,15-20.4,7.2,0,12,4.8,13.8,11.4l2.4-1.8c7.5-5.7,12-9.6,21.9-9.6,11.1,0,19.8,5.4,26.4,14.4l2.4-2.4c9-9,12.6-12,25.2-12,9.6,0,18.3,4.2,24,11.7,7.2,9.3,6.6,17.7,6.9,28.8l3,99.6c.3,10.2-1.2,21.6-14.1,21.6-11.7,0-14.1-9.9-14.4-19.5l-3-95.1c-.3-5.1,1.2-15.3-6.6-15.3-4.2,0-9.6,7.2-12,9.9l-6,6.6Z"/>
    <path d="M1766.66,312.4c0,16.2-.6,25.5,19.2,25.5h14.7c11.7,0,17.1-.9,20.1-12.6,1.8-6.9,7.2-11.7,14.4-11.7,8.1,0,14.7,6.3,14.7,14.4s-5.1,18.3-9.9,24c-10.5,12.6-24.3,14.7-39.6,14.7h-14.7c-14.4,0-27-3.3-37.2-14.4-11.1-12.3-10.5-24.6-10.5-40.2v-78.3h-9.3c-8.4,0-19.8-1.8-19.8-14.4s10.2-14.4,19.8-14.4h9.3v-29.4c0-9.9,2.1-19.8,14.4-19.8s14.4,9.9,14.4,19.8v29.4h48.3c9.6,0,19.8,2.1,19.8,14.4s-11.4,14.4-19.8,14.4h-48.3v78.6Z"/>
  </g>
</svg>