<?xml version="1.0" encoding="UTF-8"?>
<svg id="Layer_1" data-name="Layer 1" xmlns="http://www.w3.org/2000/svg" viewBox="0 0 500 500">
  <circle cx="250" cy="250" r="250" style="fill: #fff;"/>
  <path d="M79.36,401.41h121.35c1.75,0,3.4-.82,4.46-2.22L425.84,108.32c2.8-3.69.17-8.99-4.46-8.99h-121.35c-1.75,0-3.4.82-4.46,2.22L74.89,392.42c-2.8,3.69-.17,8.99,4.46,8.99Z" style="fill: #fc0;"/>
  <circle cx="120.16" cy="172.25" r="72.92" style="fill: #231f20;"/>
  <circle cx="380.57" cy="328.5" r="72.92" style="fill: #d00;"/>
  <g>
    <path d="M89.21,382.5l22.04-22.04,6.2,6.2-13.09,13.09,5.04,5.04,11.18-11.18,5.82,5.83-11.18,11.18,11.79,11.79-8.96,8.96-28.85-28.85Z"/>
    <path d="M120.44,351.27l8.93-8.93,28.85,28.85-8.93,8.93-28.85-28.85Z"/>
    <path d="M139.86,331.85l8.32-8.32,26.83,5.1-15.96-15.96,8.4-8.4,28.85,28.85-8.4,8.4-26.65-5.04,15.84,15.84-8.38,8.38-28.85-28.85Z"/>
    <path d="M218.84,301.04l-10.12,10.12,3.36,6.17-9.1,9.1-18.01-39.69,9.73-9.73,39.69,18.01-9.34,9.34-6.21-3.32ZM210.75,296.66l-13.56-7.19,7.22,13.52,6.33-6.34Z"/>
    <path d="M212.45,259.25l8.33-8.33,26.83,5.1-15.96-15.96,8.4-8.4,28.85,28.85-8.4,8.4-26.65-5.04,15.84,15.84-8.38,8.38-28.85-28.85Z"/>
    <path d="M249.27,222.44l25.23-25.23,5.77,5.77.69,33.08,16.79-16.79,6.2,6.2-27.38,27.38-5.98-5.98-.68-32.73-14.47,14.47-6.16-6.16Z"/>
    <path d="M324.96,194.92l-10.12,10.12,3.36,6.17-9.1,9.1-18.01-39.7,9.72-9.72,39.69,18.01-9.34,9.34-6.21-3.32ZM316.88,190.53l-13.56-7.19,7.22,13.52,6.34-6.34Z"/>
    <path d="M318.42,153.29l11.72-11.72,22.08,13.03-13.07-22.04,11.72-11.72,28.85,28.85-7.3,7.3-22-22,16.38,27.63-6.61,6.61-27.62-16.39,22,22-7.3,7.3-28.85-28.85Z"/>
    <path d="M358.56,113.14l27.1-27.1,7.12,7.12-9.09,9.09,21.73,21.73-8.92,8.92-21.73-21.73-9.09,9.09-7.12-7.12Z"/>
  </g>
  <path d="M398.84,307l-13.06,1.5c-.43-1.3-1.03-2.22-1.79-2.77s-1.78-.82-3.06-.82c-1.53,0-2.64.3-3.35.89-.71.59-1.06,1.35-1.06,2.26,0,.78.32,1.46.96,2.05,1.14,1.05,3.8,2.34,8,3.86,5.99,2.19,10.16,4.33,12.51,6.43,2.32,2.12,3.49,4.89,3.49,8.31,0,2.01-.44,3.84-1.33,5.49-.89,1.65-2.32,3.33-4.31,5.04,1.21,1.32,2.1,2.65,2.68,4s.87,2.88.87,4.61c0,2.37-.61,4.59-1.83,6.66-1.22,2.07-3.14,3.73-5.76,4.97-2.62,1.24-6.14,1.86-10.56,1.86-2.83,0-5.34-.24-7.54-.72s-4.01-1.14-5.43-1.98c-1.42-.84-2.6-1.82-3.52-2.92s-1.61-2.16-2.07-3.18c-.46-1.01-.87-2.39-1.23-4.12l12.85-1.34c.82,1.67,1.75,2.9,2.8,3.68,1.05.78,2.33,1.17,3.86,1.17s2.75-.37,3.54-1.09,1.18-1.63,1.18-2.7c0-.91-.47-1.84-1.4-2.77-1.3-1.28-4.78-3.04-10.44-5.28-5.66-2.25-9.44-4.48-11.33-6.69-1.89-2.21-2.84-4.56-2.84-7.05,0-1.96.51-3.77,1.52-5.42,1.01-1.65,2.75-3.35,5.21-5.08-1.16-1.28-2.01-2.53-2.53-3.76-.52-1.23-.79-2.61-.79-4.14,0-1.96.46-3.76,1.38-5.39s2.12-2.93,3.61-3.92c1.48-.98,2.98-1.69,4.51-2.12,2.07-.59,4.74-.89,8-.89,4.35,0,7.6.39,9.76,1.18s3.91,2,5.28,3.64,2.44,3.82,3.21,6.53ZM372.7,320.51c-1.19,1.57-1.78,2.84-1.78,3.8,0,.59.19,1.11.58,1.54.64.73,2.21,1.67,4.72,2.8l13.16,5.92c1.03-1.55,1.54-2.79,1.54-3.73,0-.75-.31-1.43-.92-2.02-.89-.87-3.52-2.21-7.9-4.02s-7.51-3.24-9.4-4.29Z"/>
  <path d="M131.57,173.92l-1.48,6.22h-10.36c1.34,4.26,4.26,6.39,8.75,6.39,4.92,0,9.52-1.59,13.81-4.79v12.75c-3.55,2.44-7.85,3.66-12.89,3.66-8.13,0-14.15-1.86-18.05-5.57-3.9-3.71-6.28-7.86-7.14-12.44h-6.2l1.65-6.22h3.76c-.05-.34-.07-.95-.07-1.81,0-.91.02-1.57.07-1.98h-4.55l1.62-6.22h3.73c2.96-11.71,11.1-17.57,24.4-17.57,4.35,0,8.76,1.16,13.23,3.49l-3.08,12.41c-3.1-2.85-6.33-4.27-9.71-4.27-4.42,0-7.41,1.98-8.96,5.95h12.31l-1.48,6.22h-12.03c-.05.46-.07,1.12-.07,1.98v1.81h12.72Z" style="fill: #fc0;"/>
</svg>